<?xml version="1.0" encoding="UTF-8" standalone="no"?>
<!DOCTYPE svg PUBLIC "-//W3C//DTD SVG 1.1//EN" "http://www.w3.org/Graphics/SVG/1.1/DTD/svg11.dtd">
<svg xmlns="http://www.w3.org/2000/svg" xmlns:xlink="http://www.w3.org/1999/xlink" version="1.1" width="1849.9999pt" height="941.6666pt" viewBox="0 0 1849.9999 941.6666">
<g enable-background="new">
<path transform="matrix(2.7777777,0,0,-2.7777777,0,941.6666)" d="M 0 0 L 666 0 L 666 339 L 0 339 Z " fill="#ffffff"/>
<path transform="matrix(2.7777777,0,0,-2.7777777,0,941.6666)" d="M 0 0 L 666 0 L 666 339 L 0 339 Z " fill="#ffffff"/>
<path transform="matrix(2.7777777,0,0,-2.7777777,0,941.6666)" stroke-width="1.07" stroke-linecap="round" stroke-linejoin="round" fill="none" stroke="#ffffff" d="M 0 0 L 666 0 L 666 339 L 0 339 Z "/>
<clipPath id="cp0">
<path transform="matrix(2.7777777,0,0,-2.7777777,0,941.6666)" d="M 35.98 31.91 L 576.51998 31.91 L 576.51998 333.52 L 35.98 333.52 Z "/>
</clipPath>
<g clip-path="url(#cp0)">
<path transform="matrix(2.7777777,0,0,-2.7777777,0,941.6666)" d="M 35.98 31.91 L 576.51998 31.91 L 576.51998 333.52 L 35.98 333.52 Z " fill="#ebebeb"/>
<path transform="matrix(2.7777777,0,0,-2.7777777,0,941.6666)" stroke-width=".53" stroke-linecap="butt" stroke-linejoin="round" fill="none" stroke="#ffffff" d="M 35.98 81.63 L 576.52 81.63 "/>
<path transform="matrix(2.7777777,0,0,-2.7777777,0,941.6666)" stroke-width=".53" stroke-linecap="butt" stroke-linejoin="round" fill="none" stroke="#ffffff" d="M 35.98 149.32 L 576.52 149.32 "/>
<path transform="matrix(2.7777777,0,0,-2.7777777,0,941.6666)" stroke-width=".53" stroke-linecap="butt" stroke-linejoin="round" fill="none" stroke="#ffffff" d="M 35.98 217.02 L 576.52 217.02 "/>
<path transform="matrix(2.7777777,0,0,-2.7777777,0,941.6666)" stroke-width=".53" stroke-linecap="butt" stroke-linejoin="round" fill="none" stroke="#ffffff" d="M 35.98 284.71 L 576.52 284.71 "/>
<path transform="matrix(2.7777777,0,0,-2.7777777,0,941.6666)" stroke-width=".53" stroke-linecap="butt" stroke-linejoin="round" fill="none" stroke="#ffffff" d="M 42.42 31.91 L 42.42 333.52 "/>
<path transform="matrix(2.7777777,0,0,-2.7777777,0,941.6666)" stroke-width=".53" stroke-linecap="butt" stroke-linejoin="round" fill="none" stroke="#ffffff" d="M 243.82 31.91 L 243.82 333.52 "/>
<path transform="matrix(2.7777777,0,0,-2.7777777,0,941.6666)" stroke-width=".53" stroke-linecap="butt" stroke-linejoin="round" fill="none" stroke="#ffffff" d="M 445.21 31.91 L 445.21 333.52 "/>
<path transform="matrix(2.7777777,0,0,-2.7777777,0,941.6666)" stroke-width="1.07" stroke-linecap="butt" stroke-linejoin="round" fill="none" stroke="#ffffff" d="M 35.98 47.78 L 576.52 47.78 "/>
<path transform="matrix(2.7777777,0,0,-2.7777777,0,941.6666)" stroke-width="1.07" stroke-linecap="butt" stroke-linejoin="round" fill="none" stroke="#ffffff" d="M 35.98 115.48 L 576.52 115.48 "/>
<path transform="matrix(2.7777777,0,0,-2.7777777,0,941.6666)" stroke-width="1.07" stroke-linecap="butt" stroke-linejoin="round" fill="none" stroke="#ffffff" d="M 35.98 183.17 L 576.52 183.17 "/>
<path transform="matrix(2.7777777,0,0,-2.7777777,0,941.6666)" stroke-width="1.07" stroke-linecap="butt" stroke-linejoin="round" fill="none" stroke="#ffffff" d="M 35.98 250.86 L 576.52 250.86 "/>
<path transform="matrix(2.7777777,0,0,-2.7777777,0,941.6666)" stroke-width="1.07" stroke-linecap="butt" stroke-linejoin="round" fill="none" stroke="#ffffff" d="M 35.98 318.56 L 576.52 318.56 "/>
<path transform="matrix(2.7777777,0,0,-2.7777777,0,941.6666)" stroke-width="1.07" stroke-linecap="butt" stroke-linejoin="round" fill="none" stroke="#ffffff" d="M 143.12 31.91 L 143.12 333.52 "/>
<path transform="matrix(2.7777777,0,0,-2.7777777,0,941.6666)" stroke-width="1.07" stroke-linecap="butt" stroke-linejoin="round" fill="none" stroke="#ffffff" d="M 344.51 31.91 L 344.51 333.52 "/>
<path transform="matrix(2.7777777,0,0,-2.7777777,0,941.6666)" stroke-width="1.07" stroke-linecap="butt" stroke-linejoin="round" fill="none" stroke="#ffffff" d="M 545.91 31.91 L 545.91 333.52 "/>
<path transform="matrix(2.7777777,0,0,-2.7777777,0,941.6666)" stroke-width="1.07" stroke-linecap="butt" stroke-linejoin="round" fill="none" stroke="#f8766d" d="M 60.55 318.53 L 62.56 318.46 L 64.58 318.38 L 66.59 318.29 L 68.6 318.2 L 70.62 318.09 L 72.63 317.97 L 74.65 317.85 L 76.66 317.71 L 78.67 317.57 L 80.69 317.42 L 82.7 317.26 L 84.72 317.09 L 86.73 316.91 L 88.74 316.72 L 90.76 316.53 L 92.77 316.32 L 94.79 316.11 L 96.8 315.89 L 98.81 315.66 L 100.83 315.42 L 102.84 315.17 L 104.86 314.91 L 106.87 314.65 L 108.88 314.38 L 110.9 314.1 L 112.91 313.81 L 114.92 313.51 L 116.94 313.21 L 118.95 312.89 L 120.97 312.57 L 122.98 312.24 L 124.99 311.9 L 127.01 311.56 L 129.02 311.2 L 131.04 310.84 L 133.05 310.47 L 135.06 310.1 L 137.08 309.71 L 139.09 309.32 L 141.11 308.92 L 143.12 308.51 L 145.13 308.1 L 147.15 307.68 L 149.16 307.25 L 151.18 306.81 L 153.19 306.36 L 155.2 305.91 L 157.22 305.45 L 159.23 304.98 L 161.25 304.51 L 163.26 304.03 L 165.27 303.54 L 167.29 303.05 L 169.3 302.54 L 171.32 302.03 L 173.33 301.52 L 175.34 300.99 L 177.36 300.46 L 179.37 299.93 L 181.38 299.38 L 183.4 298.83 L 185.41 298.28 L 187.43 297.71 L 189.44 297.14 L 191.45 296.56 L 193.47 295.98 L 195.48 295.39 L 197.5 294.79 L 199.51 294.19 L 201.52 293.58 L 203.54 292.97 L 205.55 292.34 L 207.57 291.72 L 209.58 291.08 L 211.59 290.44 L 213.61 289.8 L 215.62 289.14 L 217.64 288.48 L 219.65 287.82 L 221.66 287.15 L 223.68 286.47 L 225.69 285.79 L 227.71 285.1 L 229.72 284.41 L 231.73 283.71 L 233.75 283 L 235.76 282.29 L 237.77 281.58 L 239.79 280.85 L 241.8 280.13 L 243.82 279.39 L 245.83 278.65 L 247.84 277.91 L 249.86 277.16 L 251.87 276.41 L 253.89 275.65 L 255.9 274.88 L 257.91 274.11 L 259.93 273.34 L 261.94 272.56 L 263.96 271.77 L 265.97 270.98 L 267.98 270.19 L 270 269.39 L 272.01 268.58 L 274.03 267.77 L 276.04 266.96 L 278.05 266.14 L 280.07 265.31 L 282.08 264.48 L 284.1 263.65 L 286.11 262.81 L 288.12 261.97 L 290.14 261.12 L 292.15 260.27 L 294.17 259.42 L 296.18 258.56 L 298.19 257.69 L 300.21 256.82 L 302.22 255.95 L 304.23 255.07 L 306.25 254.19 L 308.26 253.31 L 310.28 252.42 L 312.29 251.52 L 314.3 250.63 L 316.32 249.72 L 318.33 248.82 L 320.35 247.91 L 322.36 247 L 324.37 246.08 L 326.39 245.16 L 328.4 244.24 L 330.42 243.31 L 332.43 242.38 L 334.44 241.44 L 336.46 240.5 L 338.47 239.56 L 340.49 238.62 L 342.5 237.67 L 344.51 236.72 L 346.53 235.76 L 348.54 234.8 L 350.56 233.84 L 352.57 232.88 L 354.58 231.91 L 356.6 230.94 L 358.61 229.96 L 360.62 228.99 L 362.64 228.01 L 364.65 227.02 L 366.67 226.04 L 368.68 225.05 L 370.69 224.06 L 372.71 223.07 L 374.72 222.07 L 376.74 221.07 L 378.75 220.07 L 380.76 219.06 L 382.78 218.06 L 384.79 217.05 L 386.81 216.03 L 388.82 215.02 L 390.83 214 L 392.85 212.98 L 394.86 211.96 L 396.88 210.94 L 398.89 209.91 L 400.9 208.89 L 402.92 207.86 L 404.93 206.83 L 406.95 205.79 L 408.96 204.76 L 410.97 203.72 L 412.99 202.68 L 415 201.64 L 417.02 200.59 L 419.03 199.55 L 421.04 198.5 L 423.06 197.45 L 425.07 196.4 L 427.08 195.35 L 429.1 194.3 L 431.11 193.24 L 433.13 192.19 L 435.14 191.13 L 437.15 190.07 L 439.17 189.01 L 441.18 187.95 L 443.2 186.89 L 445.21 185.82 L 447.22 184.76 L 449.24 183.69 L 451.25 182.63 L 453.27 181.56 L 455.28 180.49 L 457.29 179.42 L 459.31 178.35 L 461.32 177.27 L 463.34 176.2 L 465.35 175.13 L 467.36 174.05 L 469.38 172.98 L 471.39 171.9 L 473.41 170.83 L 475.42 169.75 L 477.43 168.67 L 479.45 167.6 L 481.46 166.52 L 483.47 165.44 L 485.49 164.36 L 487.5 163.28 L 489.52 162.2 L 491.53 161.12 L 493.54 160.04 L 495.56 158.96 L 497.57 157.88 L 499.59 156.8 L 501.6 155.72 L 503.61 154.64 L 505.63 153.56 L 507.64 152.48 L 509.66 151.4 L 511.67 150.33 L 513.68 149.25 L 515.7 148.17 L 517.71 147.09 L 519.73 146.01 L 521.74 144.93 L 523.75 143.86 L 525.77 142.78 L 527.78 141.7 L 529.8 140.63 L 531.81 139.55 L 533.82 138.48 L 535.84 137.41 L 537.85 136.33 L 539.87 135.26 L 541.88 134.19 L 543.89 133.12 L 545.91 132.05 L 547.92 130.98 L 549.93 129.92 L 551.95 128.85 "/>
<path transform="matrix(2.7777777,0,0,-2.7777777,0,941.6666)" stroke-width="1.07" stroke-linecap="butt" stroke-linejoin="round" fill="none" stroke="#a3a500" d="M 60.55 318.87 L 62.56 318.44 L 64.58 317.99 L 66.59 317.53 L 68.6 317.05 L 70.62 316.56 L 72.63 316.06 L 74.65 315.55 L 76.66 315.03 L 78.67 314.49 L 80.69 313.94 L 82.7 313.38 L 84.72 312.8 L 86.73 312.22 L 88.74 311.62 L 90.76 311.01 L 92.77 310.39 L 94.79 309.76 L 96.8 309.12 L 98.81 308.47 L 100.83 307.8 L 102.84 307.13 L 104.86 306.44 L 106.87 305.74 L 108.88 305.04 L 110.9 304.32 L 112.91 303.59 L 114.92 302.86 L 116.94 302.11 L 118.95 301.35 L 120.97 300.59 L 122.98 299.81 L 124.99 299.03 L 127.01 298.23 L 129.02 297.43 L 131.04 296.62 L 133.05 295.79 L 135.06 294.96 L 137.08 294.13 L 139.09 293.28 L 141.11 292.42 L 143.12 291.56 L 145.13 290.69 L 147.15 289.81 L 149.16 288.92 L 151.18 288.03 L 153.19 287.12 L 155.2 286.22 L 157.22 285.3 L 159.23 284.37 L 161.25 283.44 L 163.26 282.5 L 165.27 281.56 L 167.29 280.61 L 169.3 279.65 L 171.32 278.68 L 173.33 277.71 L 175.34 276.74 L 177.36 275.75 L 179.37 274.76 L 181.38 273.77 L 183.4 272.77 L 185.41 271.76 L 187.43 270.75 L 189.44 269.74 L 191.45 268.72 L 193.47 267.69 L 195.48 266.66 L 197.5 265.62 L 199.51 264.58 L 201.52 263.54 L 203.54 262.49 L 205.55 261.43 L 207.57 260.38 L 209.58 259.32 L 211.59 258.25 L 213.61 257.18 L 215.62 256.11 L 217.64 255.03 L 219.65 253.95 L 221.66 252.87 L 223.68 251.79 L 225.69 250.7 L 227.71 249.61 L 229.72 248.51 L 231.73 247.42 L 233.75 246.32 L 235.76 245.22 L 237.77 244.12 L 239.79 243.01 L 241.8 241.9 L 243.82 240.8 L 245.83 239.69 L 247.84 238.57 L 249.86 237.46 L 251.87 236.35 L 253.89 235.23 L 255.9 234.12 L 257.91 233 L 259.93 231.88 L 261.94 230.76 L 263.96 229.64 L 265.97 228.52 L 267.98 227.4 L 270 226.29 L 272.01 225.17 L 274.03 224.05 L 276.04 222.93 L 278.05 221.81 L 280.07 220.69 L 282.08 219.57 L 284.1 218.46 L 286.11 217.34 L 288.12 216.23 L 290.14 215.12 L 292.15 214 L 294.17 212.89 L 296.18 211.79 L 298.19 210.68 L 300.21 209.57 L 302.22 208.47 L 304.23 207.37 L 306.25 206.27 L 308.26 205.18 L 310.28 204.08 L 312.29 202.99 L 314.3 201.9 L 316.32 200.82 L 318.33 199.74 L 320.35 198.66 L 322.36 197.58 L 324.37 196.51 L 326.39 195.44 L 328.4 194.37 L 330.42 193.31 L 332.43 192.26 L 334.44 191.2 L 336.46 190.15 L 338.47 189.11 L 340.49 188.07 L 342.5 187.03 L 344.51 186 L 346.53 184.97 L 348.54 183.95 L 350.56 182.94 L 352.57 181.93 L 354.58 180.92 L 356.6 179.92 L 358.61 178.93 L 360.62 177.94 L 362.64 176.95 L 364.65 175.98 L 366.67 175.01 L 368.68 174.04 L 370.69 173.08 L 372.71 172.13 L 374.72 171.19 L 376.74 170.25 L 378.75 169.32 L 380.76 168.39 L 382.78 167.48 L 384.79 166.57 L 386.81 165.66 L 388.82 164.77 L 390.83 163.88 L 392.85 163 L 394.86 162.13 L 396.88 161.27 L 398.89 160.41 L 400.9 159.57 L 402.92 158.73 L 404.93 157.9 L 406.95 157.08 L 408.96 156.26 L 410.97 155.46 L 412.99 154.67 L 415 153.88 L 417.02 153.11 L 419.03 152.34 L 421.04 151.58 L 423.06 150.84 L 425.07 150.1 L 427.08 149.37 L 429.1 148.66 L 431.11 147.95 L 433.13 147.25 L 435.14 146.57 L 437.15 145.89 L 439.17 145.23 L 441.18 144.57 L 443.2 143.93 L 445.21 143.3 L 447.22 142.68 L 449.24 142.07 L 451.25 141.48 L 453.27 140.89 L 455.28 140.32 L 457.29 139.76 L 459.31 139.21 L 461.32 138.67 L 463.34 138.14 L 465.35 137.63 L 467.36 137.13 L 469.38 136.64 L 471.39 136.17 L 473.41 135.71 L 475.42 135.26 L 477.43 134.82 L 479.45 134.4 L 481.46 133.99 L 483.47 133.6 L 485.49 133.22 L 487.5 132.85 L 489.52 132.5 L 491.53 132.16 L 493.54 131.83 L 495.56 131.52 L 497.57 131.23 L 499.59 130.95 L 501.6 130.68 L 503.61 130.43 L 505.63 130.19 L 507.64 129.97 L 509.66 129.77 L 511.67 129.58 L 513.68 129.4 L 515.7 129.24 L 517.71 129.1 L 519.73 128.97 L 521.74 128.86 L 523.75 128.76 L 525.77 128.68 L 527.78 128.62 L 529.8 128.57 L 531.81 128.55 L 533.82 128.53 L 535.84 128.54 L 537.85 128.56 L 539.87 128.6 L 541.88 128.65 L 543.89 128.73 L 545.91 128.82 L 547.92 128.93 L 549.93 129.05 L 551.95 129.2 "/>
<path transform="matrix(2.7777777,0,0,-2.7777777,0,941.6666)" stroke-width="1.07" stroke-linecap="butt" stroke-linejoin="round" fill="none" stroke="#00bf7d" d="M 60.55 319.47 L 62.56 318.57 L 64.58 317.66 L 66.59 316.74 L 68.6 315.81 L 70.62 314.86 L 72.63 313.91 L 74.65 312.94 L 76.66 311.97 L 78.67 310.98 L 80.69 309.99 L 82.7 308.98 L 84.72 307.97 L 86.73 306.95 L 88.74 305.91 L 90.76 304.87 L 92.77 303.82 L 94.79 302.76 L 96.8 301.69 L 98.81 300.61 L 100.83 299.52 L 102.84 298.42 L 104.86 297.32 L 106.87 296.21 L 108.88 295.08 L 110.9 293.96 L 112.91 292.82 L 114.92 291.67 L 116.94 290.52 L 118.95 289.36 L 120.97 288.19 L 122.98 287.02 L 124.99 285.84 L 127.01 284.65 L 129.02 283.45 L 131.04 282.25 L 133.05 281.04 L 135.06 279.83 L 137.08 278.61 L 139.09 277.38 L 141.11 276.15 L 143.12 274.91 L 145.13 273.66 L 147.15 272.41 L 149.16 271.16 L 151.18 269.89 L 153.19 268.63 L 155.2 267.36 L 157.22 266.08 L 159.23 264.8 L 161.25 263.51 L 163.26 262.22 L 165.27 260.93 L 167.29 259.63 L 169.3 258.32 L 171.32 257.01 L 173.33 255.7 L 175.34 254.39 L 177.36 253.07 L 179.37 251.75 L 181.38 250.42 L 183.4 249.09 L 185.41 247.76 L 187.43 246.42 L 189.44 245.09 L 191.45 243.74 L 193.47 242.4 L 195.48 241.06 L 197.5 239.71 L 199.51 238.36 L 201.52 237.01 L 203.54 235.65 L 205.55 234.3 L 207.57 232.94 L 209.58 231.58 L 211.59 230.22 L 213.61 228.86 L 215.62 227.5 L 217.64 226.13 L 219.65 224.77 L 221.66 223.4 L 223.68 222.04 L 225.69 220.67 L 227.71 219.3 L 229.72 217.94 L 231.73 216.57 L 233.75 215.2 L 235.76 213.84 L 237.77 212.47 L 239.79 211.11 L 241.8 209.74 L 243.82 208.38 L 245.83 207.02 L 247.84 205.65 L 249.86 204.29 L 251.87 202.93 L 253.89 201.58 L 255.9 200.22 L 257.91 198.86 L 259.93 197.51 L 261.94 196.16 L 263.96 194.81 L 265.97 193.46 L 267.98 192.12 L 270 190.78 L 272.01 189.44 L 274.03 188.1 L 276.04 186.77 L 278.05 185.44 L 280.07 184.11 L 282.08 182.79 L 284.1 181.47 L 286.11 180.15 L 288.12 178.84 L 290.14 177.53 L 292.15 176.22 L 294.17 174.92 L 296.18 173.62 L 298.19 172.33 L 300.21 171.04 L 302.22 169.76 L 304.23 168.48 L 306.25 167.21 L 308.26 165.94 L 310.28 164.67 L 312.29 163.42 L 314.3 162.16 L 316.32 160.91 L 318.33 159.67 L 320.35 158.44 L 322.36 157.21 L 324.37 155.98 L 326.39 154.77 L 328.4 153.55 L 330.42 152.35 L 332.43 151.15 L 334.44 149.96 L 336.46 148.78 L 338.47 147.6 L 340.49 146.43 L 342.5 145.26 L 344.51 144.11 L 346.53 142.96 L 348.54 141.82 L 350.56 140.69 L 352.57 139.56 L 354.58 138.45 L 356.6 137.34 L 358.61 136.24 L 360.62 135.15 L 362.64 134.07 L 364.65 132.99 L 366.67 131.93 L 368.68 130.87 L 370.69 129.82 L 372.71 128.79 L 374.72 127.76 L 376.74 126.74 L 378.75 125.73 L 380.76 124.73 L 382.78 123.74 L 384.79 122.76 L 386.81 121.8 L 388.82 120.84 L 390.83 119.89 L 392.85 118.95 L 394.86 118.03 L 396.88 117.11 L 398.89 116.21 L 400.9 115.31 L 402.92 114.43 L 404.93 113.56 L 406.95 112.7 L 408.96 111.85 L 410.97 111.02 L 412.99 110.19 L 415 109.38 L 417.02 108.58 L 419.03 107.8 L 421.04 107.02 L 423.06 106.26 L 425.07 105.51 L 427.08 104.77 L 429.1 104.05 L 431.11 103.34 L 433.13 102.64 L 435.14 101.96 L 437.15 101.29 L 439.17 100.64 L 441.18 99.99 L 443.2 99.36 L 445.21 98.75 L 447.22 98.15 L 449.24 97.56 L 451.25 96.99 L 453.27 96.44 L 455.28 95.9 L 457.29 95.37 L 459.31 94.86 L 461.32 94.36 L 463.34 93.88 L 465.35 93.41 L 467.36 92.96 L 469.38 92.53 L 471.39 92.11 L 473.41 91.71 L 475.42 91.32 L 477.43 90.95 L 479.45 90.59 L 481.46 90.26 L 483.47 89.94 L 485.49 89.63 L 487.5 89.34 L 489.52 89.07 L 491.53 88.82 L 493.54 88.58 L 495.56 88.37 L 497.57 88.16 L 499.59 87.98 L 501.6 87.82 L 503.61 87.67 L 505.63 87.54 L 507.64 87.43 L 509.66 87.33 L 511.67 87.26 L 513.68 87.2 L 515.7 87.17 L 517.71 87.15 L 519.73 87.15 L 521.74 87.17 L 523.75 87.21 L 525.77 87.27 L 527.78 87.35 L 529.8 87.44 L 531.81 87.56 L 533.82 87.7 L 535.84 87.86 L 537.85 88.03 L 539.87 88.23 L 541.88 88.45 L 543.89 88.69 L 545.91 88.95 L 547.92 89.23 L 549.93 89.53 L 551.95 89.86 "/>
<path transform="matrix(2.7777777,0,0,-2.7777777,0,941.6666)" stroke-width="1.07" stroke-linecap="butt" stroke-linejoin="round" fill="none" stroke="#00b0f6" d="M 60.55 319.81 L 62.56 318.08 L 64.58 316.35 L 66.59 314.61 L 68.6 312.88 L 70.62 311.14 L 72.63 309.4 L 74.65 307.66 L 76.66 305.91 L 78.67 304.17 L 80.69 302.42 L 82.7 300.67 L 84.72 298.92 L 86.73 297.17 L 88.74 295.42 L 90.76 293.67 L 92.77 291.91 L 94.79 290.16 L 96.8 288.4 L 98.81 286.65 L 100.83 284.89 L 102.84 283.13 L 104.86 281.37 L 106.87 279.62 L 108.88 277.86 L 110.9 276.1 L 112.91 274.34 L 114.92 272.58 L 116.94 270.82 L 118.95 269.07 L 120.97 267.31 L 122.98 265.55 L 124.99 263.79 L 127.01 262.04 L 129.02 260.28 L 131.04 258.53 L 133.05 256.77 L 135.06 255.02 L 137.08 253.27 L 139.09 251.52 L 141.11 249.77 L 143.12 248.02 L 145.13 246.27 L 147.15 244.53 L 149.16 242.79 L 151.18 241.04 L 153.19 239.3 L 155.2 237.57 L 157.22 235.83 L 159.23 234.1 L 161.25 232.36 L 163.26 230.63 L 165.27 228.91 L 167.29 227.18 L 169.3 225.46 L 171.32 223.74 L 173.33 222.02 L 175.34 220.31 L 177.36 218.6 L 179.37 216.89 L 181.38 215.18 L 183.4 213.48 L 185.41 211.78 L 187.43 210.09 L 189.44 208.39 L 191.45 206.71 L 193.47 205.02 L 195.48 203.34 L 197.5 201.66 L 199.51 199.99 L 201.52 198.32 L 203.54 196.65 L 205.55 194.99 L 207.57 193.33 L 209.58 191.68 L 211.59 190.03 L 213.61 188.39 L 215.62 186.75 L 217.64 185.12 L 219.65 183.49 L 221.66 181.86 L 223.68 180.24 L 225.69 178.63 L 227.71 177.02 L 229.72 175.42 L 231.73 173.82 L 233.75 172.22 L 235.76 170.64 L 237.77 169.05 L 239.79 167.48 L 241.8 165.91 L 243.82 164.34 L 245.83 162.78 L 247.84 161.23 L 249.86 159.68 L 251.87 158.14 L 253.89 156.61 L 255.9 155.08 L 257.91 153.56 L 259.93 152.05 L 261.94 150.54 L 263.96 149.04 L 265.97 147.55 L 267.98 146.06 L 270 144.58 L 272.01 143.11 L 274.03 141.65 L 276.04 140.19 L 278.05 138.74 L 280.07 137.3 L 282.08 135.86 L 284.1 134.43 L 286.11 133.01 L 288.12 131.6 L 290.14 130.2 L 292.15 128.8 L 294.17 127.42 L 296.18 126.04 L 298.19 124.67 L 300.21 123.31 L 302.22 121.95 L 304.23 120.61 L 306.25 119.27 L 308.26 117.95 L 310.28 116.63 L 312.29 115.32 L 314.3 114.02 L 316.32 112.73 L 318.33 111.45 L 320.35 110.17 L 322.36 108.91 L 324.37 107.66 L 326.39 106.42 L 328.4 105.18 L 330.42 103.96 L 332.43 102.75 L 334.44 101.54 L 336.46 100.35 L 338.47 99.16 L 340.49 97.99 L 342.5 96.83 L 344.51 95.68 L 346.53 94.54 L 348.54 93.4 L 350.56 92.28 L 352.57 91.18 L 354.58 90.08 L 356.6 88.99 L 358.61 87.91 L 360.62 86.85 L 362.64 85.8 L 364.65 84.75 L 366.67 83.72 L 368.68 82.7 L 370.69 81.7 L 372.71 80.7 L 374.72 79.72 L 376.74 78.75 L 378.75 77.79 L 380.76 76.84 L 382.78 75.9 L 384.79 74.98 L 386.81 74.07 L 388.82 73.17 L 390.83 72.29 L 392.85 71.41 L 394.86 70.55 L 396.88 69.71 L 398.89 68.87 L 400.9 68.05 L 402.92 67.24 L 404.93 66.45 L 406.95 65.67 L 408.96 64.9 L 410.97 64.14 L 412.99 63.4 L 415 62.68 L 417.02 61.96 L 419.03 61.26 L 421.04 60.58 L 423.06 59.91 L 425.07 59.25 L 427.08 58.61 L 429.1 57.98 L 431.11 57.36 L 433.13 56.76 L 435.14 56.18 L 437.15 55.61 L 439.17 55.05 L 441.18 54.51 L 443.2 53.99 L 445.21 53.48 L 447.22 52.98 L 449.24 52.5 L 451.25 52.04 L 453.27 51.59 L 455.28 51.15 L 457.29 50.73 L 459.31 50.33 L 461.32 49.94 L 463.34 49.57 L 465.35 49.22 L 467.36 48.88 L 469.38 48.56 L 471.39 48.25 L 473.41 47.96 L 475.42 47.69 L 477.43 47.43 L 479.45 47.19 L 481.46 46.97 L 483.47 46.76 L 485.49 46.57 L 487.5 46.4 L 489.52 46.24 L 491.53 46.1 L 493.54 45.98 L 495.56 45.88 L 497.57 45.79 L 499.59 45.72 L 501.6 45.67 L 503.61 45.64 L 505.63 45.62 L 507.64 45.62 L 509.66 45.64 L 511.67 45.68 L 513.68 45.74 L 515.7 45.81 L 517.71 45.9 L 519.73 46.02 L 521.74 46.15 L 523.75 46.29 L 525.77 46.46 L 527.78 46.65 L 529.8 46.85 L 531.81 47.08 L 533.82 47.32 L 535.84 47.58 L 537.85 47.87 L 539.87 48.17 L 541.88 48.49 L 543.89 48.83 L 545.91 49.19 L 547.92 49.57 L 549.93 49.97 L 551.95 50.39 "/>
<path transform="matrix(2.7777777,0,0,-2.7777777,0,941.6666)" stroke-width="1.07" stroke-linecap="butt" stroke-linejoin="round" fill="none" stroke="#e76bf3" d="M 60.55 319.66 L 62.56 316.43 L 64.58 313.23 L 66.59 310.06 L 68.6 306.91 L 70.62 303.79 L 72.63 300.69 L 74.65 297.62 L 76.66 294.58 L 78.67 291.56 L 80.69 288.56 L 82.7 285.59 L 84.72 282.65 L 86.73 279.73 L 88.74 276.83 L 90.76 273.96 L 92.77 271.12 L 94.79 268.3 L 96.8 265.5 L 98.81 262.73 L 100.83 259.98 L 102.84 257.25 L 104.86 254.55 L 106.87 251.88 L 108.88 249.22 L 110.9 246.59 L 112.91 243.99 L 114.92 241.41 L 116.94 238.85 L 118.95 236.31 L 120.97 233.8 L 122.98 231.31 L 124.99 228.84 L 127.01 226.39 L 129.02 223.97 L 131.04 221.57 L 133.05 219.2 L 135.06 216.84 L 137.08 214.51 L 139.09 212.2 L 141.11 209.91 L 143.12 207.64 L 145.13 205.4 L 147.15 203.18 L 149.16 200.98 L 151.18 198.8 L 153.19 196.64 L 155.2 194.5 L 157.22 192.38 L 159.23 190.29 L 161.25 188.21 L 163.26 186.16 L 165.27 184.13 L 167.29 182.12 L 169.3 180.13 L 171.32 178.15 L 173.33 176.2 L 175.34 174.27 L 177.36 172.36 L 179.37 170.47 L 181.38 168.6 L 183.4 166.75 L 185.41 164.92 L 187.43 163.11 L 189.44 161.31 L 191.45 159.54 L 193.47 157.79 L 195.48 156.05 L 197.5 154.34 L 199.51 152.64 L 201.52 150.96 L 203.54 149.3 L 205.55 147.66 L 207.57 146.04 L 209.58 144.44 L 211.59 142.85 L 213.61 141.29 L 215.62 139.74 L 217.64 138.2 L 219.65 136.69 L 221.66 135.2 L 223.68 133.72 L 225.69 132.26 L 227.71 130.81 L 229.72 129.39 L 231.73 127.98 L 233.75 126.59 L 235.76 125.21 L 237.77 123.85 L 239.79 122.51 L 241.8 121.19 L 243.82 119.88 L 245.83 118.59 L 247.84 117.32 L 249.86 116.06 L 251.87 114.81 L 253.89 113.59 L 255.9 112.38 L 257.91 111.18 L 259.93 110 L 261.94 108.84 L 263.96 107.69 L 265.97 106.56 L 267.98 105.44 L 270 104.34 L 272.01 103.25 L 274.03 102.18 L 276.04 101.12 L 278.05 100.08 L 280.07 99.05 L 282.08 98.04 L 284.1 97.04 L 286.11 96.06 L 288.12 95.09 L 290.14 94.13 L 292.15 93.19 L 294.17 92.26 L 296.18 91.34 L 298.19 90.44 L 300.21 89.56 L 302.22 88.68 L 304.23 87.82 L 306.25 86.97 L 308.26 86.14 L 310.28 85.32 L 312.29 84.51 L 314.3 83.72 L 316.32 82.93 L 318.33 82.16 L 320.35 81.41 L 322.36 80.66 L 324.37 79.93 L 326.39 79.21 L 328.4 78.5 L 330.42 77.8 L 332.43 77.12 L 334.44 76.44 L 336.46 75.78 L 338.47 75.13 L 340.49 74.5 L 342.5 73.87 L 344.51 73.25 L 346.53 72.65 L 348.54 72.05 L 350.56 71.47 L 352.57 70.9 L 354.58 70.34 L 356.6 69.79 L 358.61 69.25 L 360.62 68.72 L 362.64 68.2 L 364.65 67.69 L 366.67 67.19 L 368.68 66.7 L 370.69 66.22 L 372.71 65.75 L 374.72 65.29 L 376.74 64.84 L 378.75 64.4 L 380.76 63.97 L 382.78 63.55 L 384.79 63.13 L 386.81 62.73 L 388.82 62.33 L 390.83 61.94 L 392.85 61.57 L 394.86 61.2 L 396.88 60.83 L 398.89 60.48 L 400.9 60.14 L 402.92 59.8 L 404.93 59.47 L 406.95 59.15 L 408.96 58.84 L 410.97 58.53 L 412.99 58.24 L 415 57.95 L 417.02 57.66 L 419.03 57.39 L 421.04 57.12 L 423.06 56.86 L 425.07 56.6 L 427.08 56.36 L 429.1 56.12 L 431.11 55.88 L 433.13 55.66 L 435.14 55.43 L 437.15 55.22 L 439.17 55.01 L 441.18 54.81 L 443.2 54.61 L 445.21 54.42 L 447.22 54.24 L 449.24 54.06 L 451.25 53.89 L 453.27 53.72 L 455.28 53.56 L 457.29 53.4 L 459.31 53.25 L 461.32 53.1 L 463.34 52.96 L 465.35 52.82 L 467.36 52.69 L 469.38 52.56 L 471.39 52.43 L 473.41 52.32 L 475.42 52.2 L 477.43 52.09 L 479.45 51.98 L 481.46 51.88 L 483.47 51.78 L 485.49 51.69 L 487.5 51.6 L 489.52 51.51 L 491.53 51.42 L 493.54 51.34 L 495.56 51.27 L 497.57 51.19 L 499.59 51.12 L 501.6 51.05 L 503.61 50.98 L 505.63 50.92 L 507.64 50.86 L 509.66 50.8 L 511.67 50.75 L 513.68 50.69 L 515.7 50.64 L 517.71 50.59 L 519.73 50.54 L 521.74 50.5 L 523.75 50.46 L 525.77 50.41 L 527.78 50.37 L 529.8 50.33 L 531.81 50.3 L 533.82 50.26 L 535.84 50.22 L 537.85 50.19 L 539.87 50.15 L 541.88 50.12 L 543.89 50.09 L 545.91 50.06 L 547.92 50.03 L 549.93 50 L 551.95 49.96 "/>
<path transform="matrix(2.7777777,0,0,-2.7777777,0,941.6666)" d="M 58.59 318.56 C 58.59 319.63 59.47 320.51 60.55 320.51 C 61.62 320.51 62.5 319.63 62.5 318.56 C 62.5 317.48 61.62 316.6 60.55 316.6 C 59.47 316.6 58.59 317.48 58.59 318.56 " fill="#f8766d"/>
<path transform="matrix(2.7777777,0,0,-2.7777777,0,941.6666)" stroke-width=".71" stroke-linecap="round" stroke-linejoin="round" fill="none" stroke="#f8766d" d="M 58.59 318.56 C 58.59 319.63 59.47 320.51 60.55 320.51 C 61.62 320.51 62.5 319.63 62.5 318.56 C 62.5 317.48 61.62 316.6 60.55 316.6 C 59.47 316.6 58.59 317.48 58.59 318.56 "/>
<path transform="matrix(2.7777777,0,0,-2.7777777,0,941.6666)" d="M 58.59 318.56 C 58.59 319.63 59.47 320.51 60.55 320.51 C 61.62 320.51 62.5 319.63 62.5 318.56 C 62.5 317.48 61.62 316.6 60.55 316.6 C 59.47 316.6 58.59 317.48 58.59 318.56 " fill="#a3a500"/>
<path transform="matrix(2.7777777,0,0,-2.7777777,0,941.6666)" stroke-width=".71" stroke-linecap="round" stroke-linejoin="round" fill="none" stroke="#a3a500" d="M 58.59 318.56 C 58.59 319.63 59.47 320.51 60.55 320.51 C 61.62 320.51 62.5 319.63 62.5 318.56 C 62.5 317.48 61.62 316.6 60.55 316.6 C 59.47 316.6 58.59 317.48 58.59 318.56 "/>
<path transform="matrix(2.7777777,0,0,-2.7777777,0,941.6666)" d="M 58.59 318.56 C 58.59 319.63 59.47 320.51 60.55 320.51 C 61.62 320.51 62.5 319.63 62.5 318.56 C 62.5 317.48 61.62 316.6 60.55 316.6 C 59.47 316.6 58.59 317.48 58.59 318.56 " fill="#00bf7d"/>
<path transform="matrix(2.7777777,0,0,-2.7777777,0,941.6666)" stroke-width=".71" stroke-linecap="round" stroke-linejoin="round" fill="none" stroke="#00bf7d" d="M 58.59 318.56 C 58.59 319.63 59.47 320.51 60.55 320.51 C 61.62 320.51 62.5 319.63 62.5 318.56 C 62.5 317.48 61.62 316.6 60.55 316.6 C 59.47 316.6 58.59 317.48 58.59 318.56 "/>
<path transform="matrix(2.7777777,0,0,-2.7777777,0,941.6666)" d="M 58.59 318.56 C 58.59 319.63 59.47 320.51 60.55 320.51 C 61.62 320.51 62.5 319.63 62.5 318.56 C 62.5 317.48 61.62 316.6 60.55 316.6 C 59.47 316.6 58.59 317.48 58.59 318.56 " fill="#00b0f6"/>
<path transform="matrix(2.7777777,0,0,-2.7777777,0,941.6666)" stroke-width=".71" stroke-linecap="round" stroke-linejoin="round" fill="none" stroke="#00b0f6" d="M 58.59 318.56 C 58.59 319.63 59.47 320.51 60.55 320.51 C 61.62 320.51 62.5 319.63 62.5 318.56 C 62.5 317.48 61.62 316.6 60.55 316.6 C 59.47 316.6 58.59 317.48 58.59 318.56 "/>
<path transform="matrix(2.7777777,0,0,-2.7777777,0,941.6666)" d="M 58.59 318.56 C 58.59 319.63 59.47 320.51 60.55 320.51 C 61.62 320.51 62.5 319.63 62.5 318.56 C 62.5 317.48 61.62 316.6 60.55 316.6 C 59.47 316.6 58.59 317.48 58.59 318.56 " fill="#e76bf3"/>
<path transform="matrix(2.7777777,0,0,-2.7777777,0,941.6666)" stroke-width=".71" stroke-linecap="round" stroke-linejoin="round" fill="none" stroke="#e76bf3" d="M 58.59 318.56 C 58.59 319.63 59.47 320.51 60.55 320.51 C 61.62 320.51 62.5 319.63 62.5 318.56 C 62.5 317.48 61.62 316.6 60.55 316.6 C 59.47 316.6 58.59 317.48 58.59 318.56 "/>
<path transform="matrix(2.7777777,0,0,-2.7777777,0,941.6666)" d="M 159.29 305.02 C 159.29 306.09 160.17 306.97 161.25 306.97 C 162.32 306.97 163.2 306.09 163.2 305.02 C 163.2 303.94 162.32 303.06 161.25 303.06 C 160.17 303.06 159.29 303.94 159.29 305.02 " fill="#f8766d"/>
<path transform="matrix(2.7777777,0,0,-2.7777777,0,941.6666)" stroke-width=".71" stroke-linecap="round" stroke-linejoin="round" fill="none" stroke="#f8766d" d="M 159.29 305.02 C 159.29 306.09 160.17 306.97 161.25 306.97 C 162.32 306.97 163.2 306.09 163.2 305.02 C 163.2 303.94 162.32 303.06 161.25 303.06 C 160.17 303.06 159.29 303.94 159.29 305.02 "/>
<path transform="matrix(2.7777777,0,0,-2.7777777,0,941.6666)" d="M 159.29 284.71 C 159.29 285.78 160.17 286.66 161.25 286.66 C 162.32 286.66 163.2 285.78 163.2 284.71 C 163.2 283.63 162.32 282.75 161.25 282.75 C 160.17 282.75 159.29 283.63 159.29 284.71 " fill="#a3a500"/>
<path transform="matrix(2.7777777,0,0,-2.7777777,0,941.6666)" stroke-width=".71" stroke-linecap="round" stroke-linejoin="round" fill="none" stroke="#a3a500" d="M 159.29 284.71 C 159.29 285.78 160.17 286.66 161.25 286.66 C 162.32 286.66 163.2 285.78 163.2 284.71 C 163.2 283.63 162.32 282.75 161.25 282.75 C 160.17 282.75 159.29 283.63 159.29 284.71 "/>
<path transform="matrix(2.7777777,0,0,-2.7777777,0,941.6666)" d="M 221.72 284.71 C 221.72 285.78 222.6 286.66 223.68 286.66 C 224.75 286.66 225.63 285.78 225.63 284.71 C 225.63 283.63 224.75 282.75 223.68 282.75 C 222.6 282.75 221.72 283.63 221.72 284.71 " fill="#f8766d"/>
<path transform="matrix(2.7777777,0,0,-2.7777777,0,941.6666)" stroke-width=".71" stroke-linecap="round" stroke-linejoin="round" fill="none" stroke="#f8766d" d="M 221.72 284.71 C 221.72 285.78 222.6 286.66 223.68 286.66 C 224.75 286.66 225.63 285.78 225.63 284.71 C 225.63 283.63 224.75 282.75 223.68 282.75 C 222.6 282.75 221.72 283.63 221.72 284.71 "/>
<path transform="matrix(2.7777777,0,0,-2.7777777,0,941.6666)" d="M 221.72 250.86 C 221.72 251.94 222.6 252.82 223.68 252.82 C 224.75 252.82 225.63 251.94 225.63 250.86 C 225.63 249.79 224.75 248.91 223.68 248.91 C 222.6 248.91 221.72 249.79 221.72 250.86 " fill="#a3a500"/>
<path transform="matrix(2.7777777,0,0,-2.7777777,0,941.6666)" stroke-width=".71" stroke-linecap="round" stroke-linejoin="round" fill="none" stroke="#a3a500" d="M 221.72 250.86 C 221.72 251.94 222.6 252.82 223.68 252.82 C 224.75 252.82 225.63 251.94 225.63 250.86 C 225.63 249.79 224.75 248.91 223.68 248.91 C 222.6 248.91 221.72 249.79 221.72 250.86 "/>
<path transform="matrix(2.7777777,0,0,-2.7777777,0,941.6666)" d="M 221.72 230.56 C 221.72 231.63 222.6 232.51 223.68 232.51 C 224.75 232.51 225.63 231.63 225.63 230.56 C 225.63 229.48 224.75 228.6 223.68 228.6 C 222.6 228.6 221.72 229.48 221.72 230.56 " fill="#00bf7d"/>
<path transform="matrix(2.7777777,0,0,-2.7777777,0,941.6666)" stroke-width=".71" stroke-linecap="round" stroke-linejoin="round" fill="none" stroke="#00bf7d" d="M 221.72 230.56 C 221.72 231.63 222.6 232.51 223.68 232.51 C 224.75 232.51 225.63 231.63 225.63 230.56 C 225.63 229.48 224.75 228.6 223.68 228.6 C 222.6 228.6 221.72 229.48 221.72 230.56 "/>
<path transform="matrix(2.7777777,0,0,-2.7777777,0,941.6666)" d="M 221.72 189.94 C 221.72 191.01 222.6 191.89 223.68 191.89 C 224.75 191.89 225.63 191.01 225.63 189.94 C 225.63 188.86 224.75 187.98 223.68 187.98 C 222.6 187.98 221.72 188.86 221.72 189.94 " fill="#00b0f6"/>
<path transform="matrix(2.7777777,0,0,-2.7777777,0,941.6666)" stroke-width=".71" stroke-linecap="round" stroke-linejoin="round" fill="none" stroke="#00b0f6" d="M 221.72 189.94 C 221.72 191.01 222.6 191.89 223.68 191.89 C 224.75 191.89 225.63 191.01 225.63 189.94 C 225.63 188.86 224.75 187.98 223.68 187.98 C 222.6 187.98 221.72 188.86 221.72 189.94 "/>
<path transform="matrix(2.7777777,0,0,-2.7777777,0,941.6666)" d="M 221.72 142.55 C 221.72 143.63 222.6 144.51 223.68 144.51 C 224.75 144.51 225.63 143.63 225.63 142.55 C 225.63 141.48 224.75 140.6 223.68 140.6 C 222.6 140.6 221.72 141.48 221.72 142.55 " fill="#e76bf3"/>
<path transform="matrix(2.7777777,0,0,-2.7777777,0,941.6666)" stroke-width=".71" stroke-linecap="round" stroke-linejoin="round" fill="none" stroke="#e76bf3" d="M 221.72 142.55 C 221.72 143.63 222.6 144.51 223.68 144.51 C 224.75 144.51 225.63 143.63 225.63 142.55 C 225.63 141.48 224.75 140.6 223.68 140.6 C 222.6 140.6 221.72 141.48 221.72 142.55 "/>
<path transform="matrix(2.7777777,0,0,-2.7777777,0,941.6666)" d="M 284.15 264.4 C 284.15 265.48 285.03 266.36 286.11 266.36 C 287.18 266.36 288.06 265.48 288.06 264.4 C 288.06 263.33 287.18 262.45 286.11 262.45 C 285.03 262.45 284.15 263.33 284.15 264.4 " fill="#f8766d"/>
<path transform="matrix(2.7777777,0,0,-2.7777777,0,941.6666)" stroke-width=".71" stroke-linecap="round" stroke-linejoin="round" fill="none" stroke="#f8766d" d="M 284.15 264.4 C 284.15 265.48 285.03 266.36 286.11 266.36 C 287.18 266.36 288.06 265.48 288.06 264.4 C 288.06 263.33 287.18 262.45 286.11 262.45 C 285.03 262.45 284.15 263.33 284.15 264.4 "/>
<path transform="matrix(2.7777777,0,0,-2.7777777,0,941.6666)" d="M 284.15 217.02 C 284.15 218.09 285.03 218.97 286.11 218.97 C 287.18 218.97 288.06 218.09 288.06 217.02 C 288.06 215.94 287.18 215.06 286.11 215.06 C 285.03 215.06 284.15 215.94 284.15 217.02 " fill="#a3a500"/>
<path transform="matrix(2.7777777,0,0,-2.7777777,0,941.6666)" stroke-width=".71" stroke-linecap="round" stroke-linejoin="round" fill="none" stroke="#a3a500" d="M 284.15 217.02 C 284.15 218.09 285.03 218.97 286.11 218.97 C 287.18 218.97 288.06 218.09 288.06 217.02 C 288.06 215.94 287.18 215.06 286.11 215.06 C 285.03 215.06 284.15 215.94 284.15 217.02 "/>
<path transform="matrix(2.7777777,0,0,-2.7777777,0,941.6666)" d="M 284.15 169.63 C 284.15 170.71 285.03 171.59 286.11 171.59 C 287.18 171.59 288.06 170.71 288.06 169.63 C 288.06 168.56 287.18 167.68 286.11 167.68 C 285.03 167.68 284.15 168.56 284.15 169.63 " fill="#00bf7d"/>
<path transform="matrix(2.7777777,0,0,-2.7777777,0,941.6666)" stroke-width=".71" stroke-linecap="round" stroke-linejoin="round" fill="none" stroke="#00bf7d" d="M 284.15 169.63 C 284.15 170.71 285.03 171.59 286.11 171.59 C 287.18 171.59 288.06 170.71 288.06 169.63 C 288.06 168.56 287.18 167.68 286.11 167.68 C 285.03 167.68 284.15 168.56 284.15 169.63 "/>
<path transform="matrix(2.7777777,0,0,-2.7777777,0,941.6666)" d="M 284.15 125.63 C 284.15 126.71 285.03 127.59 286.11 127.59 C 287.18 127.59 288.06 126.71 288.06 125.63 C 288.06 124.56 287.18 123.68 286.11 123.68 C 285.03 123.68 284.15 124.56 284.15 125.63 " fill="#00b0f6"/>
<path transform="matrix(2.7777777,0,0,-2.7777777,0,941.6666)" stroke-width=".71" stroke-linecap="round" stroke-linejoin="round" fill="none" stroke="#00b0f6" d="M 284.15 125.63 C 284.15 126.71 285.03 127.59 286.11 127.59 C 287.18 127.59 288.06 126.71 288.06 125.63 C 288.06 124.56 287.18 123.68 286.11 123.68 C 285.03 123.68 284.15 124.56 284.15 125.63 "/>
<path transform="matrix(2.7777777,0,0,-2.7777777,0,941.6666)" d="M 284.15 88.4 C 284.15 89.47 285.03 90.35 286.11 90.35 C 287.18 90.35 288.06 89.47 288.06 88.4 C 288.06 87.32 287.18 86.44 286.11 86.44 C 285.03 86.44 284.15 87.32 284.15 88.4 " fill="#e76bf3"/>
<path transform="matrix(2.7777777,0,0,-2.7777777,0,941.6666)" stroke-width=".71" stroke-linecap="round" stroke-linejoin="round" fill="none" stroke="#e76bf3" d="M 284.15 88.4 C 284.15 89.47 285.03 90.35 286.11 90.35 C 287.18 90.35 288.06 89.47 288.06 88.4 C 288.06 87.32 287.18 86.44 286.11 86.44 C 285.03 86.44 284.15 87.32 284.15 88.4 "/>
<path transform="matrix(2.7777777,0,0,-2.7777777,0,941.6666)" d="M 342.56 88.4 C 342.56 89.47 343.44 90.35 344.51 90.35 C 345.59 90.35 346.47 89.47 346.47 88.4 C 346.47 87.32 345.59 86.44 344.51 86.44 C 343.44 86.44 342.56 87.32 342.56 88.4 " fill="#00b0f6"/>
<path transform="matrix(2.7777777,0,0,-2.7777777,0,941.6666)" stroke-width=".71" stroke-linecap="round" stroke-linejoin="round" fill="none" stroke="#00b0f6" d="M 342.56 88.4 C 342.56 89.47 343.44 90.35 344.51 90.35 C 345.59 90.35 346.47 89.47 346.47 88.4 C 346.47 87.32 345.59 86.44 344.51 86.44 C 343.44 86.44 342.56 87.32 342.56 88.4 "/>
<path transform="matrix(2.7777777,0,0,-2.7777777,0,941.6666)" d="M 342.56 68.09 C 342.56 69.17 343.44 70.05 344.51 70.05 C 345.59 70.05 346.47 69.17 346.47 68.09 C 346.47 67.02 345.59 66.14 344.51 66.14 C 343.44 66.14 342.56 67.02 342.56 68.09 " fill="#e76bf3"/>
<path transform="matrix(2.7777777,0,0,-2.7777777,0,941.6666)" stroke-width=".71" stroke-linecap="round" stroke-linejoin="round" fill="none" stroke="#e76bf3" d="M 342.56 68.09 C 342.56 69.17 343.44 70.05 344.51 70.05 C 345.59 70.05 346.47 69.17 346.47 68.09 C 346.47 67.02 345.59 66.14 344.51 66.14 C 343.44 66.14 342.56 67.02 342.56 68.09 "/>
<path transform="matrix(2.7777777,0,0,-2.7777777,0,941.6666)" d="M 447.28 183.17 C 447.28 184.24 448.16 185.12 449.24 185.12 C 450.31 185.12 451.19 184.24 451.19 183.17 C 451.19 182.09 450.31 181.22 449.24 181.22 C 448.16 181.22 447.28 182.09 447.28 183.17 " fill="#f8766d"/>
<path transform="matrix(2.7777777,0,0,-2.7777777,0,941.6666)" stroke-width=".71" stroke-linecap="round" stroke-linejoin="round" fill="none" stroke="#f8766d" d="M 447.28 183.17 C 447.28 184.24 448.16 185.12 449.24 185.12 C 450.31 185.12 451.19 184.24 451.19 183.17 C 451.19 182.09 450.31 181.22 449.24 181.22 C 448.16 181.22 447.28 182.09 447.28 183.17 "/>
<path transform="matrix(2.7777777,0,0,-2.7777777,0,941.6666)" d="M 447.28 142.55 C 447.28 143.63 448.16 144.51 449.24 144.51 C 450.31 144.51 451.19 143.63 451.19 142.55 C 451.19 141.48 450.31 140.6 449.24 140.6 C 448.16 140.6 447.28 141.48 447.28 142.55 " fill="#a3a500"/>
<path transform="matrix(2.7777777,0,0,-2.7777777,0,941.6666)" stroke-width=".71" stroke-linecap="round" stroke-linejoin="round" fill="none" stroke="#a3a500" d="M 447.28 142.55 C 447.28 143.63 448.16 144.51 449.24 144.51 C 450.31 144.51 451.19 143.63 451.19 142.55 C 451.19 141.48 450.31 140.6 449.24 140.6 C 448.16 140.6 447.28 141.48 447.28 142.55 "/>
<path transform="matrix(2.7777777,0,0,-2.7777777,0,941.6666)" d="M 447.28 101.94 C 447.28 103.01 448.16 103.89 449.24 103.89 C 450.31 103.89 451.19 103.01 451.19 101.94 C 451.19 100.86 450.31 99.98 449.24 99.98 C 448.16 99.98 447.28 100.86 447.28 101.94 " fill="#00bf7d"/>
<path transform="matrix(2.7777777,0,0,-2.7777777,0,941.6666)" stroke-width=".71" stroke-linecap="round" stroke-linejoin="round" fill="none" stroke="#00bf7d" d="M 447.28 101.94 C 447.28 103.01 448.16 103.89 449.24 103.89 C 450.31 103.89 451.19 103.01 451.19 101.94 C 451.19 100.86 450.31 99.98 449.24 99.98 C 448.16 99.98 447.28 100.86 447.28 101.94 "/>
<path transform="matrix(2.7777777,0,0,-2.7777777,0,941.6666)" d="M 447.28 61.32 C 447.28 62.4 448.16 63.28 449.24 63.28 C 450.31 63.28 451.19 62.4 451.19 61.32 C 451.19 60.25 450.31 59.37 449.24 59.37 C 448.16 59.37 447.28 60.25 447.28 61.32 " fill="#00b0f6"/>
<path transform="matrix(2.7777777,0,0,-2.7777777,0,941.6666)" stroke-width=".71" stroke-linecap="round" stroke-linejoin="round" fill="none" stroke="#00b0f6" d="M 447.28 61.32 C 447.28 62.4 448.16 63.28 449.24 63.28 C 450.31 63.28 451.19 62.4 451.19 61.32 C 451.19 60.25 450.31 59.37 449.24 59.37 C 448.16 59.37 447.28 60.25 447.28 61.32 "/>
<path transform="matrix(2.7777777,0,0,-2.7777777,0,941.6666)" d="M 447.28 61.32 C 447.28 62.4 448.16 63.28 449.24 63.28 C 450.31 63.28 451.19 62.4 451.19 61.32 C 451.19 60.25 450.31 59.37 449.24 59.37 C 448.16 59.37 447.28 60.25 447.28 61.32 " fill="#e76bf3"/>
<path transform="matrix(2.7777777,0,0,-2.7777777,0,941.6666)" stroke-width=".71" stroke-linecap="round" stroke-linejoin="round" fill="none" stroke="#e76bf3" d="M 447.28 61.32 C 447.28 62.4 448.16 63.28 449.24 63.28 C 450.31 63.28 451.19 62.4 451.19 61.32 C 451.19 60.25 450.31 59.37 449.24 59.37 C 448.16 59.37 447.28 60.25 447.28 61.32 "/>
<path transform="matrix(2.7777777,0,0,-2.7777777,0,941.6666)" d="M 549.99 129.02 C 549.99 130.09 550.87 130.97 551.95 130.97 C 553.02 130.97 553.9 130.09 553.9 129.02 C 553.9 127.94 553.02 127.06 551.95 127.06 C 550.87 127.06 549.99 127.94 549.99 129.02 " fill="#f8766d"/>
<path transform="matrix(2.7777777,0,0,-2.7777777,0,941.6666)" stroke-width=".71" stroke-linecap="round" stroke-linejoin="round" fill="none" stroke="#f8766d" d="M 549.99 129.02 C 549.99 130.09 550.87 130.97 551.95 130.97 C 553.02 130.97 553.9 130.09 553.9 129.02 C 553.9 127.94 553.02 127.06 551.95 127.06 C 550.87 127.06 549.99 127.94 549.99 129.02 "/>
<path transform="matrix(2.7777777,0,0,-2.7777777,0,941.6666)" d="M 549.99 129.02 C 549.99 130.09 550.87 130.97 551.95 130.97 C 553.02 130.97 553.9 130.09 553.9 129.02 C 553.9 127.94 553.02 127.06 551.95 127.06 C 550.87 127.06 549.99 127.94 549.99 129.02 " fill="#a3a500"/>
<path transform="matrix(2.7777777,0,0,-2.7777777,0,941.6666)" stroke-width=".71" stroke-linecap="round" stroke-linejoin="round" fill="none" stroke="#a3a500" d="M 549.99 129.02 C 549.99 130.09 550.87 130.97 551.95 130.97 C 553.02 130.97 553.9 130.09 553.9 129.02 C 553.9 127.94 553.02 127.06 551.95 127.06 C 550.87 127.06 549.99 127.94 549.99 129.02 "/>
<path transform="matrix(2.7777777,0,0,-2.7777777,0,941.6666)" d="M 549.99 88.4 C 549.99 89.47 550.87 90.35 551.95 90.35 C 553.02 90.35 553.9 89.47 553.9 88.4 C 553.9 87.32 553.02 86.44 551.95 86.44 C 550.87 86.44 549.99 87.32 549.99 88.4 " fill="#00bf7d"/>
<path transform="matrix(2.7777777,0,0,-2.7777777,0,941.6666)" stroke-width=".71" stroke-linecap="round" stroke-linejoin="round" fill="none" stroke="#00bf7d" d="M 549.99 88.4 C 549.99 89.47 550.87 90.35 551.95 90.35 C 553.02 90.35 553.9 89.47 553.9 88.4 C 553.9 87.32 553.02 86.44 551.95 86.44 C 550.87 86.44 549.99 87.32 549.99 88.4 "/>
<path transform="matrix(2.7777777,0,0,-2.7777777,0,941.6666)" d="M 549.99 47.78 C 549.99 48.86 550.87 49.74 551.95 49.74 C 553.02 49.74 553.9 48.86 553.9 47.78 C 553.9 46.71 553.02 45.83 551.95 45.83 C 550.87 45.83 549.99 46.71 549.99 47.78 " fill="#00b0f6"/>
<path transform="matrix(2.7777777,0,0,-2.7777777,0,941.6666)" stroke-width=".71" stroke-linecap="round" stroke-linejoin="round" fill="none" stroke="#00b0f6" d="M 549.99 47.78 C 549.99 48.86 550.87 49.74 551.95 49.74 C 553.02 49.74 553.9 48.86 553.9 47.78 C 553.9 46.71 553.02 45.83 551.95 45.83 C 550.87 45.83 549.99 46.71 549.99 47.78 "/>
<path transform="matrix(2.7777777,0,0,-2.7777777,0,941.6666)" d="M 549.99 47.78 C 549.99 48.86 550.87 49.74 551.95 49.74 C 553.02 49.74 553.9 48.86 553.9 47.78 C 553.9 46.71 553.02 45.83 551.95 45.83 C 550.87 45.83 549.99 46.71 549.99 47.78 " fill="#e76bf3"/>
<path transform="matrix(2.7777777,0,0,-2.7777777,0,941.6666)" stroke-width=".71" stroke-linecap="round" stroke-linejoin="round" fill="none" stroke="#e76bf3" d="M 549.99 47.78 C 549.99 48.86 550.87 49.74 551.95 49.74 C 553.02 49.74 553.9 48.86 553.9 47.78 C 553.9 46.71 553.02 45.83 551.95 45.83 C 550.87 45.83 549.99 46.71 549.99 47.78 "/>
</g>
<symbol id="font_1_11">
<path d="M .23200001 .74600008 C .16600001 .74600008 .106000009 .716 .069000009 .66700008 C .022999999 .60300007 0 .507 0 .37300004 C 0 .12900001 .08 0 .23200001 0 C .382 0 .46400003 .12900001 .46400003 .367 C .46400003 .507 .442 .601 .395 .66700008 C .358 .717 .299 .74600008 .23200001 .74600008 M .23200001 .66800007 C .327 .66800007 .374 .57100006 .374 .37500004 C .374 .16900002 .328 .073 .23 .073 C .13700001 .073 .09 .17300001 .09 .372 C .09 .57100006 .13700001 .66800007 .23200001 .66800007 Z "/>
</symbol>
<symbol id="font_1_f">
<path d="M .10400001 .104 L 0 .104 L 0 0 L .10400001 0 L .10400001 .104 Z "/>
</symbol>
<use xlink:href="#font_1_11" transform="matrix(25,0,0,-25,52.575,818.49166)" fill="#4d4d4d"/>
<use xlink:href="#font_1_f" transform="matrix(25,0,0,-25,67.575008,817.9166)" fill="#4d4d4d"/>
<use xlink:href="#font_1_11" transform="matrix(25,0,0,-25,73.425,818.49166)" fill="#4d4d4d"/>
<symbol id="font_1_12">
<path d="M .157 .51500007 L .157 0 L .245 0 L .245 .72300007 L .187 .72300007 C .15600002 .61200007 .136 .597 0 .57900008 L 0 .51500007 L .157 .51500007 Z "/>
</symbol>
<use xlink:href="#font_1_11" transform="matrix(25,0,0,-25,52.575,630.4361)" fill="#4d4d4d"/>
<use xlink:href="#font_1_f" transform="matrix(25,0,0,-25,67.575008,629.8611)" fill="#4d4d4d"/>
<use xlink:href="#font_1_12" transform="matrix(25,0,0,-25,74.90001,629.8611)" fill="#4d4d4d"/>
<symbol id="font_1_13">
<path d="M .47200004 .086 L .099 .086 C .108 .146 .14000002 .184 .227 .237 L .32700003 .293 C .426 .34800003 .47700004 .42200003 .47700004 .51100006 C .47700004 .57100006 .453 .62700006 .411 .66600009 C .36900003 .70400008 .317 .72200009 .25 .72200009 C .16 .72200009 .093 .69000008 .054000006 .628 C .029 .59000006 .018 .545 .015999999 .47200004 L .10400001 .47200004 C .107 .521 .113 .55 .125 .57400009 C .148 .61800006 .194 .64500007 .24700001 .64500007 C .32700003 .64500007 .38700003 .587 .38700003 .50900009 C .38700003 .45100004 .354 .40100003 .291 .36500005 L .199 .31100003 C .051 .22600001 .008000001 .158 0 0 L .47200004 0 L .47200004 .086 Z "/>
</symbol>
<use xlink:href="#font_1_11" transform="matrix(25,0,0,-25,52.575,442.40834)" fill="#4d4d4d"/>
<use xlink:href="#font_1_f" transform="matrix(25,0,0,-25,67.575008,441.8333)" fill="#4d4d4d"/>
<use xlink:href="#font_1_13" transform="matrix(25,0,0,-25,73.200008,441.80833)" fill="#4d4d4d"/>
<symbol id="font_1_14">
<path d="M .18900001 .356 L .2 .356 L .23700002 .356 C .333 .356 .384 .31100003 .384 .224 C .384 .13300002 .32900004 .07800001 .238 .07800001 C .141 .07800001 .094 .127 .088 .23300001 L 0 .23300001 C .0040000008 .17500001 .014000002 .13700001 .031 .105000007 C .068 .035000005 .13700001 0 .234 0 C .38000003 0 .47400005 .08800001 .47400005 .22500001 C .47400005 .317 .439 .367 .354 .397 C .42000003 .42400003 .453 .47400005 .453 .54700008 C .453 .671 .372 .74600008 .23700002 .74600008 C .094 .74600008 .018 .666 .015000001 .513 L .103 .513 C .104 .55700007 .107999999 .582 .119 .60400006 C .139 .64500007 .183 .669 .238 .669 C .316 .669 .363 .62200006 .363 .544 C .363 .49300004 .345 .462 .30600003 .44500003 C .282 .43500004 .25 .43100003 .18900001 .43 L .18900001 .356 Z "/>
</symbol>
<use xlink:href="#font_1_11" transform="matrix(25,0,0,-25,52.575,254.38054)" fill="#4d4d4d"/>
<use xlink:href="#font_1_f" transform="matrix(25,0,0,-25,67.575008,253.80554)" fill="#4d4d4d"/>
<use xlink:href="#font_1_14" transform="matrix(25,0,0,-25,73.15001,254.38054)" fill="#4d4d4d"/>
<symbol id="font_1_15">
<path d="M .29900003 .17500001 L .29900003 0 L .38700003 0 L .38700003 .17500001 L .49200005 .17500001 L .49200005 .254 L .38700003 .254 L .38700003 .72300007 L .32200004 .72300007 L 0 .268 L 0 .17500001 L .29900003 .17500001 M .29900003 .254 L .07700001 .254 L .29900003 .573 L .29900003 .254 Z "/>
</symbol>
<use xlink:href="#font_1_11" transform="matrix(25,0,0,-25,52.575,66.325)" fill="#4d4d4d"/>
<use xlink:href="#font_1_f" transform="matrix(25,0,0,-25,67.575008,65.75)" fill="#4d4d4d"/>
<use xlink:href="#font_1_15" transform="matrix(25,0,0,-25,73.05,65.75)" fill="#4d4d4d"/>
<path transform="matrix(2.7777777,0,0,-2.7777777,0,941.6666)" stroke-width="1.07" stroke-linecap="butt" stroke-linejoin="round" fill="none" stroke="#333333" d="M 33.24 47.78 L 35.98 47.78 "/>
<path transform="matrix(2.7777777,0,0,-2.7777777,0,941.6666)" stroke-width="1.07" stroke-linecap="butt" stroke-linejoin="round" fill="none" stroke="#333333" d="M 33.24 115.48 L 35.98 115.48 "/>
<path transform="matrix(2.7777777,0,0,-2.7777777,0,941.6666)" stroke-width="1.07" stroke-linecap="butt" stroke-linejoin="round" fill="none" stroke="#333333" d="M 33.24 183.17 L 35.98 183.17 "/>
<path transform="matrix(2.7777777,0,0,-2.7777777,0,941.6666)" stroke-width="1.07" stroke-linecap="butt" stroke-linejoin="round" fill="none" stroke="#333333" d="M 33.24 250.86 L 35.98 250.86 "/>
<path transform="matrix(2.7777777,0,0,-2.7777777,0,941.6666)" stroke-width="1.07" stroke-linecap="butt" stroke-linejoin="round" fill="none" stroke="#333333" d="M 33.24 318.56 L 35.98 318.56 "/>
<path transform="matrix(2.7777777,0,0,-2.7777777,0,941.6666)" stroke-width="1.07" stroke-linecap="butt" stroke-linejoin="round" fill="none" stroke="#333333" d="M 143.12 29.17 L 143.12 31.91 "/>
<path transform="matrix(2.7777777,0,0,-2.7777777,0,941.6666)" stroke-width="1.07" stroke-linecap="butt" stroke-linejoin="round" fill="none" stroke="#333333" d="M 344.51 29.17 L 344.51 31.91 "/>
<path transform="matrix(2.7777777,0,0,-2.7777777,0,941.6666)" stroke-width="1.07" stroke-linecap="butt" stroke-linejoin="round" fill="none" stroke="#333333" d="M 545.91 29.17 L 545.91 31.91 "/>
<use xlink:href="#font_1_12" transform="matrix(25,0,0,-25,379.24443,884.6666)" fill="#4d4d4d"/>
<use xlink:href="#font_1_11" transform="matrix(25,0,0,-25,391.66944,885.24166)" fill="#4d4d4d"/>
<use xlink:href="#font_1_11" transform="matrix(25,0,0,-25,405.56944,885.24166)" fill="#4d4d4d"/>
<use xlink:href="#font_1_13" transform="matrix(25,0,0,-25,936.98886,884.6416)" fill="#4d4d4d"/>
<use xlink:href="#font_1_11" transform="matrix(25,0,0,-25,951.1139,885.24166)" fill="#4d4d4d"/>
<use xlink:href="#font_1_11" transform="matrix(25,0,0,-25,965.01388,885.24166)" fill="#4d4d4d"/>
<use xlink:href="#font_1_14" transform="matrix(25,0,0,-25,1496.3556,885.24166)" fill="#4d4d4d"/>
<use xlink:href="#font_1_11" transform="matrix(25,0,0,-25,1510.5307,885.24166)" fill="#4d4d4d"/>
<use xlink:href="#font_1_11" transform="matrix(25,0,0,-25,1524.4307,885.24166)" fill="#4d4d4d"/>
<symbol id="font_1_25">
<path d="M 0 0 L .28100003 0 C .46500004 0 .57800009 .13800001 .57800009 .365 C .57800009 .591 .46600003 .72900006 .28100003 .72900006 L 0 .72900006 L 0 0 M .09300001 .082 L .09300001 .647 L .265 .647 C .40900005 .647 .485 .55 .485 .36400003 C .485 .179 .40900005 .082 .265 .082 L .09300001 .082 Z "/>
</symbol>
<symbol id="font_1_42">
<path d="M .49300004 .072000008 C .48400004 .07000001 .48000003 .07000001 .47500003 .07000001 C .44600005 .07000001 .43000005 .08500001 .43000005 .11100001 L .43000005 .41900004 C .43000005 .512 .36200003 .56200006 .23300001 .56200006 C .15600002 .56200006 .095000009 .54 .059 .50100007 C .035000005 .47400005 .024999999 .44400005 .023000002 .39200003 L .107 .39200003 C .114 .45600004 .15200001 .485 .23000002 .485 C .30600003 .485 .34700004 .45700003 .34700004 .407 L .34700004 .38500003 C .34600003 .349 .328 .33600004 .26000003 .32700003 C .14200002 .312 .124000009 .30800004 .092 .29500003 C .031000004 .269 0 .223 0 .155 C 0 .060000004 .066 0 .17200002 0 C .238 0 .291 .023000002 .35000003 .07700001 C .35600005 .023000002 .38200004 0 .43600003 0 C .45400004 0 .46500004 .0020000004 .49300004 .0090000019 L .49300004 .072000008 M .34700004 .18800001 C .34700004 .16000001 .33900003 .143 .314 .120000008 C .28000004 .089 .23900002 .073 .19 .073 C .125 .073 .087000008 .104 .087000008 .157 C .087000008 .21200001 .123 .24000001 .21300003 .25300003 C .30200003 .26500003 .31900005 .269 .34700004 .282 L .34700004 .18800001 Z "/>
</symbol>
<symbol id="font_1_5a">
<path d="M .368 .74200007 L .22300002 .33400003 L .089 .74200007 L 0 .74200007 L .17700002 .216 L .14500001 .13300002 C .13100001 .096 .113 .082 .078 .082 C .064 .082 .052 .08400001 .034 .088 L .034 .012999997 C .051 .003999993 .068 0 .09 0 C .117000009 0 .14600002 .009000003 .16800002 .025000006 C .19400002 .044 .20900002 .066 .22500001 .108 L .458 .74200007 L .368 .74200007 Z "/>
</symbol>
<symbol id="font_1_1">
<path d="M 0 0 Z "/>
</symbol>
<symbol id="font_1_50">
<path d="M .23600002 .56200006 C .088 .56200006 0 .45700003 0 .28100003 C 0 .104 .088 0 .237 0 C .38500003 0 .47400005 .105000007 .47400005 .277 C .47400005 .45900003 .388 .56200006 .23600002 .56200006 M .237 .485 C .331 .485 .387 .40800003 .387 .27800004 C .387 .15400002 .329 .07700001 .237 .07700001 C .14400001 .07700001 .087 .15400002 .087 .28100003 C .087 .40800003 .14400001 .485 .237 .485 Z "/>
</symbol>
<symbol id="font_1_47">
<path d="M .24000001 .52400007 L .153 .52400007 L .153 .606 C .153 .64100006 .172 .65900006 .21100001 .65900006 C .21800001 .65900006 .221 .65900006 .24000001 .65800008 L .24000001 .72700008 C .221 .731 .21000001 .73200008 .193 .73200008 C .116000007 .73200008 .07000001 .688 .07000001 .61300006 L .07000001 .52400007 L 0 .52400007 L 0 .45600004 L .07000001 .45600004 L .07000001 0 L .153 0 L .153 .45600004 L .24000001 .45600004 L .24000001 .52400007 Z "/>
</symbol>
<symbol id="font_1_46">
<path d="M .47300003 .25700004 C .47300003 .337 .46700005 .38500003 .45200003 .42400003 C .41800005 .51 .33800004 .56200006 .24 .56200006 C .094 .56200006 0 .45100004 0 .27800004 C 0 .105000007 .09 0 .23800002 0 C .35800005 0 .44100005 .068 .46200005 .18200001 L .37800003 .18200001 C .35500003 .113000009 .30800004 .07700001 .24100001 .07700001 C .18800001 .07700001 .143 .101 .114999998 .14500001 C .095 .17500001 .088 .20500002 .087 .25700004 L .47300003 .25700004 M .089 .32500003 C .096 .42200003 .155 .485 .23900001 .485 C .32400004 .485 .38300003 .41900004 .38300003 .32500003 L .089 .32500003 Z "/>
</symbol>
<symbol id="font_1_53">
<path d="M 0 .52400007 L 0 0 L .08400001 0 L .08400001 .272 C .08500001 .39800004 .13700001 .45400004 .252 .45100004 L .252 .536 C .238 .53800007 .23000002 .53900006 .22 .53900006 C .16600001 .53900006 .125 .507 .07700001 .42900003 L .07700001 .52400007 L 0 .52400007 Z "/>
</symbol>
<use xlink:href="#font_1_25" transform="matrix(30.555554,0,0,-30.555554,776.05276,919.72219)"/>
<use xlink:href="#font_1_42" transform="matrix(30.555554,0,0,-30.555554,796.6777,920.4249)"/>
<use xlink:href="#font_1_5a" transform="matrix(30.555554,0,0,-30.555554,812.0777,926.3833)"/>
<use xlink:href="#font_1_1" transform="matrix(30.555554,0,0,-30.555554,826.7444,919.72219)"/>
<use xlink:href="#font_1_50" transform="matrix(30.555554,0,0,-30.555554,836.33889,920.4249)"/>
<use xlink:href="#font_1_47" transform="matrix(30.555554,0,0,-30.555554,852.7777,919.72219)"/>
<use xlink:href="#font_1_1" transform="matrix(30.555554,0,0,-30.555554,860.7222,919.72219)"/>
<use xlink:href="#font_1_5a" transform="matrix(30.555554,0,0,-30.555554,869.8278,926.3833)"/>
<use xlink:href="#font_1_46" transform="matrix(30.555554,0,0,-30.555554,885.1056,920.4249)"/>
<use xlink:href="#font_1_42" transform="matrix(30.555554,0,0,-30.555554,902.1556,920.4249)"/>
<use xlink:href="#font_1_53" transform="matrix(30.555554,0,0,-30.555554,919.9695,919.72219)"/>
<symbol id="font_1_44">
<path d="M .44000004 .37100003 C .43600003 .42200003 .42500005 .455 .40500004 .48400004 C .36900003 .53300008 .30600003 .56200006 .233 .56200006 C .091000009 .56200006 0 .45000003 0 .27600003 C 0 .10700001 .09 0 .23200001 0 C .35700003 0 .43600003 .075 .44600005 .20300001 L .36200003 .20300001 C .34800003 .119 .30500005 .07700001 .23400001 .07700001 C .142 .07700001 .087000008 .15200001 .087000008 .27600003 C .087000008 .407 .141 .485 .23200001 .485 C .30200003 .485 .34600003 .44400005 .35600005 .37100003 L .44000004 .37100003 Z "/>
</symbol>
<symbol id="font_1_4a">
<path d="M .08400001 .52400007 L .001000002 .52400007 L .001000002 0 L .08400001 0 L .08400001 .52400007 M .08400001 .72900006 L 0 .72900006 L 0 .624 L .08400001 .624 L .08400001 .72900006 Z "/>
</symbol>
<symbol id="font_1_4f">
<path d="M 0 .52400007 L 0 0 L .084000017 0 L .084000017 .289 C .084000017 .39600004 .14000002 .46600003 .22600001 .46600003 C .29200004 .46600003 .33400003 .42600004 .33400003 .363 L .33400003 0 L .41700004 0 L .41700004 .39600004 C .41700004 .483 .35200004 .53900006 .25100003 .53900006 C .17300001 .53900006 .123 .509 .077 .43600003 L .077 .52400007 L 0 .52400007 Z "/>
</symbol>
<symbol id="font_1_55">
<path d="M .24000001 .54700008 L .15400002 .54700008 L .15400002 .69100007 L .071 .69100007 L .071 .54700008 L 0 .54700008 L 0 .47900004 L .071 .47900004 L .071 .083000008 C .071 .029000003 .10700001 0 .172 0 C .194 0 .21200001 .0020000004 .24000001 .007000001 L .24000001 .07700001 C .22800002 .074 .21700001 .073 .20000002 .073 C .164 .073 .15400002 .083000008 .15400002 .120000008 L .15400002 .47900004 L .24000001 .47900004 L .24000001 .54700008 Z "/>
</symbol>
<symbol id="font_1_57">
<path d="M .27500005 0 L .47600005 .52400007 L .38200004 .52400007 L .23400001 .09900001 L .094000007 .52400007 L 0 .52400007 L .184 0 L .27500005 0 Z "/>
</symbol>
<symbol id="font_1_51">
<path d="M 0 0 L .08400001 0 L .08400001 .273 C .128 .21900001 .177 .19500001 .24500002 .19500001 C .38100005 .19500001 .469 .30400003 .469 .47100003 C .469 .647 .38300003 .757 .244 .757 C .17300001 .757 .116 .725 .07700001 .66300007 L .07700001 .74200007 L 0 .74200007 L 0 0 M .23 .679 C .32200004 .679 .38200004 .59800007 .38200004 .47300006 C .38200004 .35400004 .32100005 .273 .23 .273 C .141 .273 .08400001 .35300002 .08400001 .476 C .08400001 .59900006 .141 .679 .23 .679 Z "/>
</symbol>
<use xlink:href="#font_1_44" transform="matrix(0,-30.555554,-30.555554,-0,37.869443,602.02499)"/>
<use xlink:href="#font_1_50" transform="matrix(0,-30.555554,-30.555554,-0,37.869443,586.5945)"/>
<use xlink:href="#font_1_46" transform="matrix(0,-30.555554,-30.555554,-0,37.869443,569.4833)"/>
<use xlink:href="#font_1_47" transform="matrix(0,-30.555554,-30.555554,-0,37.166666,553.1667)"/>
<use xlink:href="#font_1_47" transform="matrix(0,-30.555554,-30.555554,-0,37.166666,544.6722)"/>
<use xlink:href="#font_1_4a" transform="matrix(0,-30.555554,-30.555554,-0,37.166666,534.7111)"/>
<use xlink:href="#font_1_44" transform="matrix(0,-30.555554,-30.555554,-0,37.869443,528.99728)"/>
<use xlink:href="#font_1_4a" transform="matrix(0,-30.555554,-30.555554,-0,37.166666,512.64999)"/>
<use xlink:href="#font_1_46" transform="matrix(0,-30.555554,-30.555554,-0,37.869443,506.66108)"/>
<use xlink:href="#font_1_4f" transform="matrix(0,-30.555554,-30.555554,-0,37.166666,488.75553)"/>
<use xlink:href="#font_1_55" transform="matrix(0,-30.555554,-30.555554,-0,37.869443,473.47779)"/>
<use xlink:href="#font_1_1" transform="matrix(0,-30.555554,-30.555554,-0,37.166666,465.4111)"/>
<use xlink:href="#font_1_50" transform="matrix(0,-30.555554,-30.555554,-0,37.869443,455.81666)"/>
<use xlink:href="#font_1_47" transform="matrix(0,-30.555554,-30.555554,-0,37.166666,439.37779)"/>
<use xlink:href="#font_1_1" transform="matrix(0,-30.555554,-30.555554,-0,37.166666,431.43336)"/>
<use xlink:href="#font_1_46" transform="matrix(0,-30.555554,-30.555554,-0,37.869443,421.71669)"/>
<use xlink:href="#font_1_57" transform="matrix(0,-30.555554,-30.555554,-0,37.166666,406.56117)"/>
<use xlink:href="#font_1_42" transform="matrix(0,-30.555554,-30.555554,-0,37.869443,391.06947)"/>
<use xlink:href="#font_1_51" transform="matrix(0,-30.555554,-30.555554,-0,43.827775,373.7139)"/>
<use xlink:href="#font_1_50" transform="matrix(0,-30.555554,-30.555554,-0,37.869443,357.275)"/>
<use xlink:href="#font_1_53" transform="matrix(0,-30.555554,-30.555554,-0,37.166666,339.27784)"/>
<use xlink:href="#font_1_42" transform="matrix(0,-30.555554,-30.555554,-0,37.869443,330.2334)"/>
<use xlink:href="#font_1_55" transform="matrix(0,-30.555554,-30.555554,-0,37.869443,314.10008)"/>
<use xlink:href="#font_1_4a" transform="matrix(0,-30.555554,-30.555554,-0,37.166666,304.01673)"/>
<use xlink:href="#font_1_50" transform="matrix(0,-30.555554,-30.555554,-0,37.869443,298.15007)"/>
<use xlink:href="#font_1_4f" transform="matrix(0,-30.555554,-30.555554,-0,37.166666,280.12229)"/>
<path transform="matrix(2.7777777,0,0,-2.7777777,0,941.6666)" d="M 587.48 126.14 L 660.51998 126.14 L 660.51998 239.3 L 587.48 239.3 Z " fill="#ffffff"/>
<symbol id="font_1_2d">
<path d="M .093 .72900006 L 0 .72900006 L 0 0 L .45300005 0 L .45300005 .082 L .093 .082 L .093 .72900006 Z "/>
</symbol>
<symbol id="font_1_22">
<path d="M .45700006 .21900001 L .532 0 L .63600006 0 L .38000003 .72900006 L .26000003 .72900006 L 0 0 L .09900001 0 L .176 .21900001 L .45700006 .21900001 M .43100003 .29700003 L .199 .29700003 L .31900005 .629 L .43100003 .29700003 Z "/>
</symbol>
<symbol id="font_1_2a">
<path d="M .094000007 .72900006 L 0 .72900006 L 0 0 L .094000007 0 L .094000007 .72900006 Z "/>
</symbol>
<symbol id="font_1_48">
<path d="M .36900003 .74200007 L .36900003 .666 C .32700003 .72900006 .28100003 .757 .215 .757 C .088 .757 0 .63900008 0 .47100003 C 0 .38300003 .021000002 .319 .066 .266 C .105000007 .22000002 .15500002 .19500001 .20900002 .19500001 C .272 .19500001 .31700004 .223 .36100004 .289 L .36100004 .26200003 C .36100004 .12200001 .32200004 .07000001 .21800003 .07000001 C .14700002 .07000001 .110000018 .098000008 .10200001 .158 L .017 .158 C .025000003 .061000006 .10200001 0 .21600002 0 C .293 0 .35700003 .025000006 .39100004 .067 C .43100003 .116000007 .44600005 .18100001 .44600005 .30400003 L .44600005 .74200007 L .36900003 .74200007 M .22300002 .68 C .31100003 .68 .36100004 .606 .36100004 .47300006 C .36100004 .34600003 .31000004 .272 .22300002 .272 C .13700001 .272 .08700001 .347 .08700001 .476 C .08700001 .60400006 .13700001 .68 .22300002 .68 Z "/>
</symbol>
<use xlink:href="#font_1_2d" transform="matrix(30.555554,0,0,-30.555554,1649.5556,317.47218)"/>
<use xlink:href="#font_1_22" transform="matrix(30.555554,0,0,-30.555554,1664.6195,317.47218)"/>
<use xlink:href="#font_1_2a" transform="matrix(30.555554,0,0,-30.555554,1687.5361,317.47218)"/>
<use xlink:href="#font_1_1" transform="matrix(30.555554,0,0,-30.555554,1692.975,317.47218)"/>
<use xlink:href="#font_1_44" transform="matrix(30.555554,0,0,-30.555554,1702.4166,318.17497)"/>
<use xlink:href="#font_1_42" transform="matrix(30.555554,0,0,-30.555554,1718.0305,318.17497)"/>
<use xlink:href="#font_1_55" transform="matrix(30.555554,0,0,-30.555554,1734.1638,318.17497)"/>
<use xlink:href="#font_1_46" transform="matrix(30.555554,0,0,-30.555554,1743.4526,318.17497)"/>
<use xlink:href="#font_1_48" transform="matrix(30.555554,0,0,-30.555554,1760.289,324.13328)"/>
<use xlink:href="#font_1_50" transform="matrix(30.555554,0,0,-30.555554,1777.3084,318.17497)"/>
<use xlink:href="#font_1_53" transform="matrix(30.555554,0,0,-30.555554,1795.3057,317.47218)"/>
<use xlink:href="#font_1_5a" transform="matrix(30.555554,0,0,-30.555554,1804.9003,324.13328)"/>
<path transform="matrix(2.7777777,0,0,-2.7777777,0,941.6666)" d="M 592.96 200.74 L 610.24008 200.74 L 610.24008 218.02 L 592.96 218.02 Z " fill="#ebebeb"/>
<path transform="matrix(2.7777777,0,0,-2.7777777,0,941.6666)" stroke-width="1.07" stroke-linecap="butt" stroke-linejoin="round" fill="none" stroke="#f8766d" d="M 594.69 209.38 L 608.51 209.38 "/>
<path transform="matrix(2.7777777,0,0,-2.7777777,0,941.6666)" d="M 599.64 209.38 C 599.64 210.45 600.52 211.33 601.6 211.33 C 602.67 211.33 603.55 210.45 603.55 209.38 C 603.55 208.3 602.67 207.42 601.6 207.42 C 600.52 207.42 599.64 208.3 599.64 209.38 " fill="#f8766d"/>
<path transform="matrix(2.7777777,0,0,-2.7777777,0,941.6666)" stroke-width=".71" stroke-linecap="round" stroke-linejoin="round" fill="none" stroke="#f8766d" d="M 599.64 209.38 C 599.64 210.45 600.52 211.33 601.6 211.33 C 602.67 211.33 603.55 210.45 603.55 209.38 C 603.55 208.3 602.67 207.42 601.6 207.42 C 600.52 207.42 599.64 208.3 599.64 209.38 "/>
<path transform="matrix(2.7777777,0,0,-2.7777777,0,941.6666)" d="M 592.96 183.46 L 610.24008 183.46 L 610.24008 200.74 L 592.96 200.74 Z " fill="#ebebeb"/>
<path transform="matrix(2.7777777,0,0,-2.7777777,0,941.6666)" stroke-width="1.07" stroke-linecap="butt" stroke-linejoin="round" fill="none" stroke="#a3a500" d="M 594.69 192.1 L 608.51 192.1 "/>
<path transform="matrix(2.7777777,0,0,-2.7777777,0,941.6666)" d="M 599.64 192.1 C 599.64 193.17 600.52 194.05 601.6 194.05 C 602.67 194.05 603.55 193.17 603.55 192.1 C 603.55 191.02 602.67 190.14 601.6 190.14 C 600.52 190.14 599.64 191.02 599.64 192.1 " fill="#a3a500"/>
<path transform="matrix(2.7777777,0,0,-2.7777777,0,941.6666)" stroke-width=".71" stroke-linecap="round" stroke-linejoin="round" fill="none" stroke="#a3a500" d="M 599.64 192.1 C 599.64 193.17 600.52 194.05 601.6 194.05 C 602.67 194.05 603.55 193.17 603.55 192.1 C 603.55 191.02 602.67 190.14 601.6 190.14 C 600.52 190.14 599.64 191.02 599.64 192.1 "/>
<path transform="matrix(2.7777777,0,0,-2.7777777,0,941.6666)" d="M 592.96 166.18 L 610.24008 166.18 L 610.24008 183.45999 L 592.96 183.45999 Z " fill="#ebebeb"/>
<path transform="matrix(2.7777777,0,0,-2.7777777,0,941.6666)" stroke-width="1.07" stroke-linecap="butt" stroke-linejoin="round" fill="none" stroke="#00bf7d" d="M 594.69 174.82 L 608.51 174.82 "/>
<path transform="matrix(2.7777777,0,0,-2.7777777,0,941.6666)" d="M 599.64 174.82 C 599.64 175.89 600.52 176.77 601.6 176.77 C 602.67 176.77 603.55 175.89 603.55 174.82 C 603.55 173.74 602.67 172.86 601.6 172.86 C 600.52 172.86 599.64 173.74 599.64 174.82 " fill="#00bf7d"/>
<path transform="matrix(2.7777777,0,0,-2.7777777,0,941.6666)" stroke-width=".71" stroke-linecap="round" stroke-linejoin="round" fill="none" stroke="#00bf7d" d="M 599.64 174.82 C 599.64 175.89 600.52 176.77 601.6 176.77 C 602.67 176.77 603.55 175.89 603.55 174.82 C 603.55 173.74 602.67 172.86 601.6 172.86 C 600.52 172.86 599.64 173.74 599.64 174.82 "/>
<path transform="matrix(2.7777777,0,0,-2.7777777,0,941.6666)" d="M 592.96 148.9 L 610.24008 148.9 L 610.24008 166.18 L 592.96 166.18 Z " fill="#ebebeb"/>
<path transform="matrix(2.7777777,0,0,-2.7777777,0,941.6666)" stroke-width="1.07" stroke-linecap="butt" stroke-linejoin="round" fill="none" stroke="#00b0f6" d="M 594.69 157.54 L 608.51 157.54 "/>
<path transform="matrix(2.7777777,0,0,-2.7777777,0,941.6666)" d="M 599.64 157.54 C 599.64 158.61 600.52 159.49 601.6 159.49 C 602.67 159.49 603.55 158.61 603.55 157.54 C 603.55 156.46 602.67 155.58 601.6 155.58 C 600.52 155.58 599.64 156.46 599.64 157.54 " fill="#00b0f6"/>
<path transform="matrix(2.7777777,0,0,-2.7777777,0,941.6666)" stroke-width=".71" stroke-linecap="round" stroke-linejoin="round" fill="none" stroke="#00b0f6" d="M 599.64 157.54 C 599.64 158.61 600.52 159.49 601.6 159.49 C 602.67 159.49 603.55 158.61 603.55 157.54 C 603.55 156.46 602.67 155.58 601.6 155.58 C 600.52 155.58 599.64 156.46 599.64 157.54 "/>
<path transform="matrix(2.7777777,0,0,-2.7777777,0,941.6666)" d="M 592.96 131.62 L 610.24008 131.62 L 610.24008 148.9 L 592.96 148.9 Z " fill="#ebebeb"/>
<path transform="matrix(2.7777777,0,0,-2.7777777,0,941.6666)" stroke-width="1.07" stroke-linecap="butt" stroke-linejoin="round" fill="none" stroke="#e76bf3" d="M 594.69 140.26 L 608.51 140.26 "/>
<path transform="matrix(2.7777777,0,0,-2.7777777,0,941.6666)" d="M 599.64 140.26 C 599.64 141.33 600.52 142.21 601.6 142.21 C 602.67 142.21 603.55 141.33 603.55 140.26 C 603.55 139.18 602.67 138.3 601.6 138.3 C 600.52 138.3 599.64 139.18 599.64 140.26 " fill="#e76bf3"/>
<path transform="matrix(2.7777777,0,0,-2.7777777,0,941.6666)" stroke-width=".71" stroke-linecap="round" stroke-linejoin="round" fill="none" stroke="#e76bf3" d="M 599.64 140.26 C 599.64 141.33 600.52 142.21 601.6 142.21 C 602.67 142.21 603.55 141.33 603.55 140.26 C 603.55 139.18 602.67 138.3 601.6 138.3 C 600.52 138.3 599.64 139.18 599.64 140.26 "/>
<symbol id="font_1_16">
<path d="M .441 .73200008 L .075 .73200008 L .022000004 .34600003 L .103000018 .34600003 C .14400001 .395 .17800002 .41200004 .23400003 .41200004 C .32900004 .41200004 .388 .347 .388 .24200002 C .388 .14000002 .32900004 .07800001 .23300001 .07800001 C .15600002 .07800001 .10900001 .117000009 .088 .19700001 L 0 .19700001 C .012000002 .139 .022000004 .11100001 .043 .08500001 C .083000008 .031000004 .15500002 0 .23500002 0 C .37800003 0 .47800002 .104 .47800002 .254 C .47800002 .39400003 .38500003 .49 .24900002 .49 C .19900002 .49 .15900001 .47700004 .118000019 .44700004 L .14600002 .64500007 L .441 .64500007 L .441 .73200008 Z "/>
</symbol>
<use xlink:href="#font_1_11" transform="matrix(25,0,0,-25,1711.4081,369.60279)"/>
<use xlink:href="#font_1_f" transform="matrix(25,0,0,-25,1726.4083,369.02778)"/>
<use xlink:href="#font_1_16" transform="matrix(25,0,0,-25,1732.0584,369.60279)"/>
<use xlink:href="#font_1_12" transform="matrix(25,0,0,-25,1712.8832,417.02778)"/>
<use xlink:href="#font_1_12" transform="matrix(25,0,0,-25,1712.8832,465.02778)"/>
<use xlink:href="#font_1_f" transform="matrix(25,0,0,-25,1726.4083,465.02778)"/>
<use xlink:href="#font_1_16" transform="matrix(25,0,0,-25,1732.0584,465.60279)"/>
<use xlink:href="#font_1_13" transform="matrix(25,0,0,-25,1711.1831,513.00277)"/>
<use xlink:href="#font_1_13" transform="matrix(25,0,0,-25,1711.1831,561.0027)"/>
<use xlink:href="#font_1_f" transform="matrix(25,0,0,-25,1726.4083,561.0277)"/>
<use xlink:href="#font_1_16" transform="matrix(25,0,0,-25,1732.0584,561.6027)"/>
</g>
</svg>
